# xmcd
# Track frame offsets:
# 150
# 10718
# 27013
# 46665
# 60997
# 78866
# 92636
# 106477
# 125708
# 138756
#
# Disc length: 2076 seconds
# Revision: 0
# Processed by: cddbd v1.4PL0 Copyright (c) Steve Scherf et al.
# Submitted via: VisiTrax 2.9.5.180 - For more info visit www.synapsa.com
#
DISCID=6b081a0a
DTITLE=Rheanne Rivers - Lets get down to it
DYEAR=1900
DGENRE=
TTITLE0=Let's get down to it
TTITLE1=I do
TTITLE2=Are you sincere
TTITLE3=Gotta feel in your heart
TTITLE4=Lying with her (While Lying to me)
TTITLE5=Sidewinder
TTITLE6=Southern thunder
TTITLE7=Every time a tear falls
TTITLE8=Wish you were here
TTITLE9=Boots wet
EXTD=
EXTT0=
EXTT1=
EXTT2=
EXTT3=
EXTT4=
EXTT5=
EXTT6=
EXTT7=
EXTT8=
EXTT9=
PLAYORDER=
